# xmcd
#
# Track frame offsets:
#      150
#      9730
#      20575
#      32007
#      43240
#      56172
#      68075
#      79715
#      92107
#      104272
#      116250
#      124982
#      139220
#      154247
#      169910
#      182405
#      197442
#      211850
#      225930
#      237620
#      250132
#      261630
#      275745
#      293785
# 
# Disc length: 4094 seconds
#
# Revision: 2
# Processed by: cddbd v1.4PL0 Copyright (c) Steve Scherf et al.
#
# Submitted via: FreeRIP 1.21
#
DISCID=5d0ffc18
DTITLE=Various Artist - Soul Time - Vol.2
DYEAR=1900
DGENRE=Soul
TTITLE0=Ain't No Soul (in These Old Shoes) - The Corvairs
TTITLE1=Think It Over (And Be Sure) - The Corvairs
TTITLE2=The Lively One - The Corvairs
TTITLE3=Hush Don't Cry - The Corvairs
TTITLE4=You're Messin' Up My Mind - The Corvairs
TTITLE5=Heart's Desire - The Corvairs
TTITLE6=Chain Reaction - The Corvairs
TTITLE7=What A Difference Love Makes - The Corvairs
TTITLE8=The Love That You Are Looking For - The Corvairs
TTITLE9=Counting On You Baby - The Corvairs
TTITLE10=If You Were There - The Corvairs
TTITLE11=Country Road - The Corvairs
TTITLE12=Didn't Say A Word - The Corvairs
TTITLE13=Hang Up Your Hang Ups - The Corvairs
TTITLE14=Seven The Loser - The Corvairs
TTITLE15=Home Is Where The Heart Is - The Corvairs
TTITLE16=Lady In Red - The Corvairs
TTITLE17=I'm Not Ready - The Corvairs
TTITLE18=Earthquake - The Corvairs
TTITLE19=Teardrop Avenue - The Corvairs
TTITLE20=Then Only Then - The Corvairs
TTITLE21=Can't Seem To Get You Out Of My Mind - The Corvairs
TTITLE22=You Can Make It If You Try - The Corvairs
TTITLE23=They Say You Found A Brand New Baby - The Corvairs
EXTD=
EXTT0=
EXTT1=
EXTT2=
EXTT3=
EXTT4=
EXTT5=
EXTT6=
EXTT7=
EXTT8=
EXTT9=
EXTT10=
EXTT11=
EXTT12=
EXTT13=
EXTT14=
EXTT15=
EXTT16=
EXTT17=
EXTT18=
EXTT19=
EXTT20=
EXTT21=
EXTT22=
EXTT23=
PLAYORDER=
